<svg xmlns="http://www.w3.org/2000/svg" version="1.1" xmlns:xlink="http://www.w3.org/1999/xlink" xmlns:svgjs="http://svgjs.dev/svgjs" width="100%" height="100%" viewBox="0 0 1000 600"><rect width="1000" height="600" x="0" y="0" fill="#3a408b"/><g><circle r="166.66666666666666" cx="298.0469614664713" cy="320.26919017328566" fill="#8f7f27" transform="matrix(0.9514363297228616,0,0,0.9514363297228616,0,-4.715758364108552)"/><path d="M271.8241352461274 394.6127974218074L271.8241352461274 394.6127974218074Q268.26378967103255 395.18453174773504 265.27517842186523 395.2624955194525Q262.286567172698 395.3664472150757 256.4912601417042 393.8591476285392L256.4912601417042 393.8591476285392Q253.47666096863105 392.9235823679303 252.28121646896415 391.6241861726402Q251.05978404539144 390.2988020534442 248.25308826356482 386.7644444022551L248.25308826356482 386.7644444022551Q246.20004227500644 383.74984522918203 245.34244078611496 381.22901661031926Q244.5108272211293 378.7081879914565 245.05657362315114 377.3048401005432Q245.6283079490788 375.90149220962985 247.49943847029655 376.4732265355575L247.49943847029655 376.4732265355575Q248.0711727962242 376.65514200289806 249.2666172958911 377.6686710352244Q250.4880497194638 378.7081879914565 251.6055304474133 380.21548757799303L251.6055304474133 380.21548757799303Q254.23031076189932 383.02218335981956 257.97257180433485 383.95774862042845Q261.7148328467704 384.89331388103733 267.8999587363513 384.1396640877691L267.8999587363513 384.1396640877691Q270.5247390508373 383.56792976184147 274.2670000932728 382.5544007295151Q278.00926113570836 381.51488377328303 281.54361878689747 380.0075841867466Q285.10396436199244 378.5262725241158 287.15701035055076 377.0189729375793L287.15701035055076 377.0189729375793Q297.08439728256724 370.28810064597644 303.06161978090176 366.36392413620035Q309.06483020314204 362.43974762642426 309.06483020314204 362.43974762642426L309.06483020314204 362.43974762642426Q309.42866113782327 361.68609783315594 310.46817809405536 361.2183152028515Q311.4817071263816 360.75053257254706 312.9890067129181 360.1787982466194L312.9890067129181 360.1787982466194Q314.1064874408677 359.06131751866997 316.62731605973045 356.61845267152455Q319.17413260249907 354.2015757482849 321.5130457540213 351.75871090113947Q323.8519589055435 349.3418339778999 324.3977053075654 348.9520151193128L324.3977053075654 348.9520151193128Q324.78752416615237 347.2628000654357 325.1513551008336 346.2492710331095Q325.51518603551483 345.2097540768774 325.51518603551483 344.09227334892785L325.51518603551483 344.09227334892785Q327.02248562205136 342.5849737623913 329.54331424091424 337.82918368762955Q332.064142859777 333.04740568896193 334.6889231742631 327.14814696234475Q337.31370348874907 321.27487615963355 338.4311842166985 316.3891464653427L338.4311842166985 316.3891464653427Q341.0559645311846 303.2912328168183 339.7565683358945 294.3253990693166Q338.4311842166985 285.333577397909 334.4030560112992 278.88857226927Q330.40091572980566 272.41757921672524 324.3977053075654 267.3759219789996L324.3977053075654 267.3759219789996Q322.34465931900695 265.6867069251225 318.70634997219463 263.7376126321873Q315.04205270147656 261.7625304153463 311.1178761917005 260.25523082880983Q307.1936996819243 258.7739191661791 304.2830522044744 257.8383539055702Q301.3983926509304 256.90278864496133 300.82665832500277 257.08470411230195L300.82665832500277 257.08470411230195Q300.07300853173444 257.26661957964257 297.73409538021224 262.98396283891907Q295.39518222869003 268.6753181742897 292.22465551218215 277.4852243783567Q289.0281408717685 286.26914265851786 285.3898315249562 296.1965295905343Q281.7515221781439 306.09792859864496 278.55500753773026 314.90783480271193L278.55500753773026 314.90783480271193Q277.4375268097807 318.4681803778069 276.1381306144906 322.392356887583Q274.81274649529473 326.3165333973591 273.87718123468585 329.22718087480894Q272.94161597407697 332.11184042835305 272.94161597407697 333.04740568896193L272.94161597407697 333.04740568896193Q270.88856998551853 336.24392032937556 269.6671375619459 341.4674930344419Q268.4457051383731 346.7170536634138 266.96439347574244 358.8794020513293L266.96439347574244 358.8794020513293Q265.27517842186523 365.2464434082509 264.521528628597 368.520921820382Q263.7678788353287 371.7954002325131 263.04021696596624 371.58749684126656L263.04021696596624 371.58749684126656Q263.04021696596624 371.58749684126656 262.93626527034303 371.6914485368899Q262.8323135747198 371.7954002325131 262.286567172698 372.3411466345349L262.286567172698 372.3411466345349Q262.286567172698 373.45862736248444 260.7792675861615 373.45862736248444Q259.2979559235307 373.45862736248444 257.32287370668985 372.62701379749876Q255.34779148984882 371.7954002325131 254.23031076189932 370.6519315806578L254.23031076189932 370.6519315806578Q253.68456435987747 368.59888559209935 253.58061266425426 366.7277550708816Q253.47666096863105 364.8566245496638 254.98396055516758 359.4251484533512L254.98396055516758 359.4251484533512Q255.91952581577647 355.8907908021621 257.32287370668985 350.74518186881323Q258.72622159760317 345.5995729354644 260.41543665148026 340.06414514352855Q262.10465170535736 334.55470527549846 263.58596336798814 329.87687897245405Q265.0932629545247 325.19905266940964 265.8469127477929 322.7561878222642L265.8469127477929 322.7561878222642Q267.146308943083 319.58566110575634 269.5891737902284 310.77575490168937L269.5891737902284 310.77575490168937Q271.0704854528592 305.91601313130434 272.6557488111131 301.0562713609193Q274.2670000932728 296.1965295905343 275.7483117559036 292.3503168524756Q277.25561134244015 288.53009203832266 277.80135774446194 287.38662338646736L277.80135774446194 287.38662338646736Q278.7369230050708 284.96974646322775 280.6080535262886 279.17443943223384Q282.47918404750635 273.3531444773341 285.4937832205794 266.25844125105016L285.4937832205794 266.25844125105016L286.79317941586953 260.0733153614692L284.7401334273112 259.13775010086033Q282.47918404750635 259.8913998941286 281.28373954783945 259.60553273116477Q280.0623071242668 259.31966556820095 279.6724882656797 259.13775010086033L279.6724882656797 259.13775010086033Q278.55500753773026 259.52756895944736 276.5019615491718 258.5920036988385Q274.4489155606135 257.6564384382296 272.8636522023595 256.14913885169307Q271.25240092019976 254.64183926515653 270.88856998551853 253.52435853720704L270.88856998551853 253.52435853720704Q270.5247390508373 252.77070874393877 270.4207873552141 251.57526424427186Q270.3168356595909 250.35383182069916 270.3168356595909 250.35383182069916L270.3168356595909 250.35383182069916Q270.5247390508373 249.23635109274966 273.1235314414175 248.19683413651757Q275.7483117559036 247.15731718028547 279.9583554286436 246.429655310923Q284.16839910138356 245.67600551765477 289.13209256739174 245.39013835469095Q294.0957860333999 245.10427119172712 298.77361233644433 245.49409005031416L298.77361233644433 245.49409005031416Q303.6333541068294 245.8579209849954 307.9473494751926 247.5471360388725Q312.2353569196499 249.23635109274966 317.3030020812813 251.10748161396742L317.3030020812813 251.10748161396742Q323.28022457961583 253.34244306986642 329.9331330995012 258.8518829378965Q336.56005369548075 264.3873107298324 342.0954814874167 271.87183281470345Q347.6049213554468 279.35635489957446 349.47605187666454 287.5945267777138L349.47605187666454 287.5945267777138Q350.0477862025922 289.8294882336128 350.593532604614 293.9355802107295Q351.16526693054163 298.06766011175205 351.2432307022591 301.887884925905Q351.3471823978823 305.7340976639637 350.4116171372734 306.8515783919132L350.4116171372734 306.8515783919132Q350.0477862025922 307.6052281851815 349.943834506969 308.6447451414136Q349.8398828113458 309.65827417373987 350.593532604614 310.0480930323269L350.593532604614 310.0480930323269Q350.4116171372734 310.59383943434875 349.29413640932387 314.25813670506693Q348.1766556813744 317.89644605187925 347.24109042076554 320.5212263663652L347.24109042076554 320.5212263663652Q346.85127156217845 325.3809681367502 344.9801410409607 330.63052876572226Q343.1090105197429 335.8541014707886 340.87404906384404 340.4539640021155Q338.6130996840392 345.02783860953673 336.7419691628214 348.1983653260446L336.7419691628214 348.1983653260446Q336.01430729345896 348.1983653260446 335.3386212719081 348.4842324890085Q334.6889231742631 348.77009965197226 335.4425729675313 348.9520151193128L335.4425729675313 348.9520151193128Q335.4425729675313 349.8875803799218 333.389526978973 352.5123606944078L333.389526978973 352.5123606944078Q332.63587718570466 353.08409502033544 331.0506138274508 355.2151047806112Q329.4653504691968 357.37210246479276 328.5297852085879 358.1257522580611L328.5297852085879 358.1257522580611Q328.3218818173415 359.4251484533512 327.3863165567326 360.2827499422426Q326.4507512961237 361.1143635072283 325.72308942676125 361.1143635072283L325.72308942676125 361.1143635072283Q325.72308942676125 361.1143635072283 325.4372222637975 361.1143635072283Q325.1513551008336 361.1143635072283 325.1513551008336 361.8680133004966L325.1513551008336 361.8680133004966Q323.64405551429707 364.1029747563956 320.4735287977892 367.195537701186Q317.3030020812813 370.28810064597644 313.274873875882 373.56257905810764Q309.2467456704827 376.83705747023873 305.03670199774274 379.6437532520654Q300.82665832500277 382.4504490338919 297.08439728256724 383.95774862042845L297.08439728256724 383.95774862042845Q295.2132667613495 385.25714481571856 293.16022077279104 386.08875838070423Q291.1071747842327 386.94635986959577 289.23604426301495 387.88192513020465L289.23604426301495 387.88192513020465Q288.30047900240606 388.63557492347286 285.10396436199244 390.0389228143862Q281.93343764548456 391.4422707052995 278.2691403747664 392.7416669005896Q274.63083102795406 394.04106309587974 271.8241352461274 394.6127974218074Z " fill="#e6cc09" transform="matrix(0.9514363297228616,0,0,0.9514363297228616,0,-4.715758364108552)"/><path d="M586.8882482225841 386.94207889893266L586.8882482225841 386.94207889893266Q582.0884713341088 391.07433714728893 575.7947241558431 391.741855787408Q569.5009769775775 392.4411610294376 563.5568824203265 389.80287307087167Q557.6127878630756 387.16458511230576 553.7030358280923 381.66550298180084L553.7030358280923 381.66550298180084Q549.8250703950195 376.6432198799524 548.6807527262439 370.12696648831366Q547.5364350574683 363.610713096675 548.4582465128709 353.05756126241124L548.4582465128709 353.05756126241124Q549.12576515299 344.1573127274901 554.1798348567488 335.0981311830167Q559.2021179585971 326.0707362404537 566.4176765922655 318.98232401442726Q573.6332352259337 311.8621251864903 580.7216474519602 309.12847742219304L580.7216474519602 309.12847742219304Q584.1546004582871 306.8398420846419 586.5385956015695 306.9669884922836Q588.9543773467623 307.0623482980149 593.9766604486107 307.53914732667135L593.9766604486107 307.53914732667135Q599.2532363657425 308.20666596679047 601.8915243243085 309.57348984893906Q604.5298122828744 310.9721003329981 606.1191423783961 313.26073567054937L606.1191423783961 313.26073567054937Q609.5520953847229 316.69368867687604 610.6964130534984 319.9994952755611Q611.840730722274 323.3053018742461 611.840730722274 326.5157486671998L611.840730722274 326.5157486671998Q610.9189192668715 331.5698183709586 605.1019711172622 338.75359040271644Q599.2532363657425 345.9691490363847 589.8761888021648 350.54641971148703L589.8761888021648 350.54641971148703Q584.822119098406 352.1675364089191 578.8780245411551 351.9132435936357Q572.9339299839042 351.6907373802626 569.0559645508314 348.9570896159654L569.0559645508314 348.9570896159654Q564.7012000891021 347.11346670516036 563.3343762069535 349.5292484503532Q561.9357657228944 351.9132435936357 560.7914480541189 361.06778494384037L560.7914480541189 361.06778494384037Q559.9014232006267 369.777313867299 562.1900585381778 373.78242570801353Q564.478693875729 377.787537548728 568.3566593088018 378.4868427907576L568.3566593088018 378.4868427907576Q572.9339299839042 379.3768676442496 575.57221794247 379.7265202652644Q578.2105059010361 380.0761728862792 582.0884713341088 377.787537548728L582.0884713341088 377.787537548728Q585.7439305538086 375.49890221117687 586.6657420092112 375.14924959016207Q587.5875534646137 374.7995969691473 588.1597122990015 374.2274381347596Q588.7318711333893 373.6552793003717 591.0205064709404 371.3666439628206L591.0205064709404 371.3666439628206Q592.6098365664621 369.777313867299 593.5316480218647 368.9826488195381Q594.4534594772673 368.18798377177734 595.5977771460429 368.18798377177734L595.5977771460429 368.18798377177734Q596.7420948148184 368.18798377177734 597.663906270221 369.2051550329111Q598.553931123713 370.22232629404493 599.4757425791156 370.69912532270143L599.4757425791156 370.69912532270143Q601.7643779166668 370.69912532270143 600.5247004421599 373.43277308699874Q599.2532363657425 376.19820745320635 595.5977771460429 379.9490264786374Q591.942317926343 383.731632105979 586.8882482225841 386.94207889893266ZM586.6657420092112 338.4357243836122L586.6657420092112 338.4357243836122Q589.1768835601354 337.2914067148365 591.942317926343 335.0981311830167Q594.6759656906403 332.93664225310727 596.6149484071767 330.29835429454135Q598.553931123713 327.66006633597544 598.553931123713 325.8482300270807L598.553931123713 325.8482300270807Q598.553931123713 322.637783234127 595.5977771460429 320.4445077023072Q592.6098365664621 318.28301877239767 586.6657420092112 319.8723488679193L586.6657420092112 319.8723488679193Q584.1546004582871 320.5716541099489 580.9441536653333 323.2099420685148Q577.7337068723796 325.8482300270807 574.8729127004406 329.026890218124Q572.0121185285017 332.2373370110778 570.2956420253382 334.7484785620019Q568.5791655221749 337.2914067148365 569.0559645508314 337.7364191415826L569.0559645508314 337.7364191415826Q569.7234831909504 338.88073681035814 572.9339299839042 339.45289564474604Q576.1443767768579 340.0250544791338 580.1494886175725 339.8025482657607Q584.1546004582871 339.58004205238774 586.6657420092112 338.4357243836122ZM630.1498134226832 394.9523025803618L630.1498134226832 394.9523025803618Q625.795048960954 396.09662024913735 623.1567610023881 393.10867966955664Q620.5502596457326 390.15252569188635 620.0734606170761 383.95413831935196Q619.62844819033 377.787537548728 621.4402844992247 369.3323014405529L621.4402844992247 369.3323014405529Q622.5846021680003 366.56686707434517 623.2839074100299 363.92857911577926Q623.9832126520594 361.3220777591238 623.9832126520594 359.7009610616917L623.9832126520594 359.7009610616917Q624.4282250788054 357.4123257241406 625.795048960954 352.96220145667996Q627.1618728431026 348.4802905873089 628.7829895405347 343.6805136988336Q630.3723196360563 338.88073681035814 631.8662899258467 335.0981311830167Q633.360260215637 331.3155255556752 633.8052726423831 330.42550070218306L633.8052726423831 330.42550070218306Q634.7270840977857 330.42550070218306 635.4263893398152 328.804384004751Q636.0939079799342 327.21505390922937 636.0939079799342 325.5939372117973L636.0939079799342 325.5939372117973Q636.0939079799342 323.7821009029026 636.8885730276951 321.49346556535147Q637.7150246773664 319.20483022780024 638.6050495308584 318.28301877239767L638.6050495308584 318.28301877239767Q638.6050495308584 317.1387011036221 639.1772083652462 315.64473081383176Q639.7493671996341 314.1507605240414 639.7493671996341 313.26073567054937L639.7493671996341 313.26073567054937Q639.7493671996341 312.3389242151468 640.3215260340218 311.41711275974416Q640.8936848684097 310.49530130434164 640.8936848684097 309.57348984893906L640.8936848684097 309.57348984893906Q642.5148015658417 306.61733587126884 645.1530895244076 300.10108247963007Q647.7595908810631 293.5530424860809 650.8746778682855 285.54281880465186Q653.9579782535975 277.5325951232228 656.6916260178947 269.77666425707713Q659.4570603841024 261.9889467890211 661.1735368872658 256.61701106615794Q662.8900133904291 251.21328874138436 662.8900133904291 250.0689710726088L662.8900133904291 250.0689710726088Q662.8900133904291 248.25713476371413 663.7800382439212 247.33532330831156Q664.7018496993238 246.413511852909 666.545472610129 246.413511852909L666.545472610129 246.413511852909Q667.212991250248 245.74599321278993 668.2619491132923 245.49170039750643Q669.2791203744262 245.26919418413343 670.2009318298287 245.26919418413343L670.2009318298287 245.26919418413343Q670.2009318298287 245.26919418413343 671.1227432852312 246.191005639536Q672.0445547406338 247.11281709493852 673.8563910495285 248.92465340383322L673.8563910495285 248.92465340383322Q675.7000139603336 250.54577010126528 676.0496665813483 252.6118992254434Q676.3675326004527 254.64624174771112 676.3675326004527 257.41167611391876L676.3675326004527 257.41167611391876Q676.3675326004527 260.367830091589 675.7000139603336 262.6564654291402Q675.000708718304 264.9451007666913 672.9345795941259 269.2998652284207Q670.9002370718582 273.65462969014993 666.545472610129 282.8091710403546L666.545472610129 282.8091710403546Q664.7018496993238 287.38644171545695 662.6357205751457 291.3915535561715Q660.601378052878 295.396665396886 660.601378052878 296.3184768522886L660.601378052878 296.3184768522886Q660.601378052878 297.2402883076911 659.7749264032067 299.0521246165858Q658.9802613554459 300.89574752739094 658.0584499000433 303.6293952916881L658.0584499000433 303.6293952916881Q657.1684250465512 305.4730182024932 655.5473083491191 309.0013310145513Q653.9579782535975 312.56143042851977 652.2415017504342 316.56654226923433Q650.5250252472707 320.5716541099489 649.3807075784952 323.4324482818878Q648.2363899097196 326.2932424538268 648.2363899097196 326.73825488057287L648.2363899097196 326.73825488057287Q648.2363899097196 327.66006633597544 648.1092435020779 328.5818777913779Q648.0138836963466 329.5036892467805 647.092072240944 330.42550070218306L647.092072240944 330.42550070218306Q646.1702607855415 330.42550070218306 646.0431143778998 331.6651781766899Q645.9477545721685 332.93664225310727 645.9477545721685 332.93664225310727L645.9477545721685 332.93664225310727Q645.9477545721685 335.2252775906584 642.2922953524686 345.0473375809821L642.2922953524686 345.0473375809821Q638.6050495308584 357.6348319375136 635.5217491455464 368.18798377177734Q632.4384487602345 378.70934900413056 632.4384487602345 385.0984559881275L632.4384487602345 385.0984559881275Q632.4384487602345 390.59753811863243 632.2159425468615 392.3140146217959Q631.9934363334884 394.0304911249592 630.1498134226832 394.9523025803618ZM664.4793434859508 387.64138414096215L664.4793434859508 387.64138414096215Q662.6357205751457 385.7977612301571 661.8410555273848 383.0641134658599Q661.046390479624 380.2986790996522 661.2688966929971 377.565031335355Q661.4914029063701 374.7995969691473 662.4132143617727 372.98776066025266L662.4132143617727 372.98776066025266Q662.4132143617727 371.1441377494475 662.9853731961605 370.12696648831366Q663.5575320305483 369.0780086252694 663.3350258171752 368.18798377177734L663.3350258171752 368.18798377177734Q663.1125196038022 367.26617231637476 663.7800382439212 364.97753697882354Q664.4793434859508 362.6889016412724 665.1786487279803 360.6227725170943L665.1786487279803 360.6227725170943Q666.767978823502 356.9673132973945 668.6116017343071 351.8178837879044Q670.4234380432017 346.6684542784143 672.0445547406338 341.61438457465545Q673.6338848361554 336.59210147280703 674.7782025049311 332.93664225310727Q675.9225201737066 329.2811830334075 676.1450263870796 328.3593715780049L676.1450263870796 328.3593715780049Q676.1450263870796 325.5939372117973 679.8004856067795 325.3714309984242L679.8004856067795 325.3714309984242Q682.5659199729871 324.44961954302164 683.9327438551356 325.27607119269294Q685.2995677372843 326.0707362404537 687.5882030748354 329.7261954601536L687.5882030748354 329.7261954601536Q689.4318259856406 331.5698183709586 688.955026956984 335.2252775906584Q688.510014530238 338.88073681035814 685.9988729793139 344.37981894086306L685.9988729793139 344.37981894086306Q685.0770615239113 346.1916552497578 683.8055974474939 349.62460825608446Q682.5659199729871 353.05756126241124 682.0891209443306 355.82299562861886L682.0891209443306 355.82299562861886Q681.1990960908385 357.6348319375136 679.9276320144212 360.972425138109Q678.6561679380038 364.27823173679405 677.7661430845118 367.26617231637476L677.7661430845118 367.26617231637476Q677.2893440558552 368.4104899851503 676.8443316291092 370.57197891505973Q676.3675326004527 372.76525444687957 675.7000139603336 375.14924959016207Q675.000708718304 377.565031335355 673.8563910495285 379.3768676442496L673.8563910495285 379.3768676442496Q671.7902619253504 388.7857018097378 670.0737854221869 390.37503190525945Q668.3573089190236 391.9643620007811 664.4793434859508 387.64138414096215ZM694.0090966607429 293.3305362727079L694.0090966607429 293.3305362727079Q692.3879799633108 291.74120617718626 691.59331491555 288.53075938423257Q690.7986498677892 285.3203125912788 691.0211560811623 284.39850113587624L691.0211560811623 284.39850113587624Q691.2436622945353 283.2541834671007 694.1044564664742 279.82123046077396Q696.9652506384132 276.3882774544472 700.8750026733964 272.28780580800134Q704.7529681064692 268.1555475596451 708.3130675204377 264.9451007666913Q711.8413803324958 261.76644057564806 713.4624970299278 261.0671353336186L713.4624970299278 261.0671353336186Q715.973638580852 259.47780523809695 718.2622739184031 261.63929416800636Q720.5509092559544 263.80078309791577 722.8395445935055 267.48802891952596L722.8395445935055 267.48802891952596Q723.538849835535 269.52237144179367 721.1230680903421 272.3831656137327Q718.7072863451492 275.2439597856716 714.8293209120765 278.4544065786253Q710.9513554790036 281.66485337157906 707.1687498516621 284.748153756891Q703.3861442243207 287.831454142203 701.5425213135155 290.3743822950376L701.5425213135155 290.3743822950376Q699.2538859759643 294.0298415147374 698.0142085014575 294.6973601548565Q696.7427444250401 295.396665396886 694.0090966607429 293.3305362727079ZM729.7054506061589 392.4411610294376L729.7054506061589 392.4411610294376Q723.0620508068786 393.58547869821314 717.5629686763737 391.6464959816767Q712.0956731477792 389.67572666322997 708.7580799471838 385.00309618239623Q705.4522733484987 380.2986790996522 705.4522733484987 372.98776066025266L705.4522733484987 372.98776066025266Q704.7529681064692 366.1218546475991 707.0416034440203 357.0626731031258Q709.3302387815716 348.0352781605628 713.8121496509426 338.88073681035814Q718.2622739184031 329.7261954601536 723.538849835535 323.0827956608731L723.538849835535 323.0827956608731Q728.1161205106373 317.5837135303682 732.6933911857396 313.00644285526585Q737.2706618608421 308.4291721801635 740.9261210805417 306.8398420846419L740.9261210805417 306.8398420846419Q744.1365678734956 305.4730182024932 746.9973620454344 305.1233655814785Q749.8581562173734 304.77371296046374 751.6699925262681 304.77371296046374L751.6699925262681 304.77371296046374Q755.3254517459678 305.69552441586626 759.5848564019659 308.1113061610592Q763.8124744560535 310.49530130434164 763.8124744560535 313.26073567054937L763.8124744560535 313.26073567054937Q763.8124744560535 313.26073567054937 764.3846332904412 313.83289450493714Q764.956792124829 314.4050533393249 764.956792124829 314.4050533393249L764.956792124829 314.4050533393249Q766.3236160069777 314.4050533393249 767.3407872681115 317.3612073169952Q768.3897451311558 320.3491478965758 768.6122513445288 324.1317535239174Q768.8347575579019 327.8825725493484 767.4679336757532 330.42550070218306L767.4679336757532 330.42550070218306Q766.5461222203506 334.7484785620019 764.2574868827995 337.9589253549557Q761.9688515452484 341.16937214790937 760.1570152363537 341.16937214790937L760.1570152363537 341.16937214790937Q759.2352037809511 341.16937214790937 758.4405387331904 341.2965185555511Q757.614087083519 341.39187836128235 757.614087083519 342.536196030058L757.614087083519 342.536196030058Q757.614087083519 343.6805136988336 756.3744096090121 343.4580074854605Q755.1029455325948 343.2355012720875 753.7361216504462 341.96403719567013Q752.3692977682977 340.7243597211633 751.6699925262681 338.88073681035814L751.6699925262681 338.88073681035814Q751.6699925262681 337.7364191415826 752.5918039816706 335.0027713772854Q753.5136154370732 332.2373370110778 754.4354268924758 327.8825725493484L754.4354268924758 327.8825725493484Q755.8022507746244 321.49346556535147 754.1811340771923 319.55448284881504Q752.5918039816706 317.5837135303682 748.0145333065683 319.42733644117334L748.0145333065683 319.42733644117334Q742.2929449626904 322.637783234127 737.1435154532003 328.3593715780049Q731.9940859437102 334.0809599218828 727.6393214819809 343.1083548644458Q723.2845570202516 352.1675364089191 719.8516040139249 365.6450556189427L719.8516040139249 365.6450556189427Q718.4847801317762 370.9216315360745 718.8344327527909 374.7995969691473Q719.1840853738057 378.70934900413056 719.8516040139249 378.93185521750354L719.8516040139249 378.93185521750354Q723.0620508068786 379.8536666729061 728.5611329373834 379.28150783851834Q734.0602150678883 378.70934900413056 736.5713566188125 377.3425251219819L736.5713566188125 377.3425251219819Q740.2268158385123 375.49890221117687 744.8040865136146 372.4156018258649Q749.381357188717 369.3323014405529 752.8143101950436 366.78937328771826L752.8143101950436 366.78937328771826Q753.9586278638193 366.1218546475991 755.5797445612513 364.50073795016704Q757.169074656773 362.9114078546454 759.0126975675781 361.9895963992428L759.0126975675781 361.9895963992428Q760.8245338764727 359.25594863494564 762.1913577586214 358.77914960628914Q763.5899682426804 358.3341371795432 766.3236160069777 358.3341371795432L766.3236160069777 358.3341371795432Q768.1672389177828 358.77914960628914 769.7565690133044 359.7009610616917Q771.3458991088261 360.6227725170943 771.9180579432139 361.54458397249687Q772.4902167776016 362.46639542789933 771.123392895453 363.1339140680185L771.123392895453 363.1339140680185Q770.2015814400505 363.1339140680185 770.1062216343191 363.7060729024063Q769.9790752266774 364.27823173679405 769.9790752266774 364.27823173679405L769.9790752266774 364.27823173679405Q770.4558742553339 365.20004319219663 768.040092510141 368.0608373641355Q765.6243107649481 370.9216315360745 761.9688515452484 374.3545845424012Q758.3133923255485 377.787537548728 755.0075857268636 380.2033192939209Q751.6699925262681 382.5873144372034 750.3031686441195 382.5873144372034L750.3031686441195 382.5873144372034Q748.0145333065683 382.5873144372034 748.0145333065683 383.95413831935196L748.0145333065683 383.95413831935196Q748.0145333065683 384.43093734800846 744.7087267078833 386.2427736569032Q741.3711335072878 388.0863965677082 737.1435154532003 389.9300194785134Q732.9158973991127 391.741855787408 729.7054506061589 392.4411610294376ZM788.5106641404598 387.64138414096215L788.5106641404598 387.64138414096215Q786.6988278315652 385.7977612301571 785.9041627838043 383.0641134658599Q785.077711134133 380.2986790996522 785.3320039494165 377.565031335355Q785.5545101627896 374.7995969691473 786.4763216181921 372.98776066025266L786.4763216181921 372.98776066025266Q786.4763216181921 371.1441377494475 787.0484804525798 370.12696648831366Q787.6206392869676 369.0780086252694 787.3663464716842 368.18798377177734L787.3663464716842 368.18798377177734Q787.1438402583111 367.26617231637476 787.8431455003407 364.97753697882354Q788.5106641404598 362.6889016412724 789.2099693824892 360.6227725170943L789.2099693824892 360.6227725170943Q790.7992994780109 356.9673132973945 792.642922388816 351.8178837879044Q794.4865452996212 346.6684542784143 796.0758753951428 341.61438457465545Q797.6652054906644 336.59210147280703 798.80952315944 332.93664225310727Q799.9538408282156 329.2811830334075 800.2081336434991 328.3593715780049L800.2081336434991 328.3593715780049Q800.2081336434991 325.5939372117973 803.8635928631988 325.3714309984242L803.8635928631988 325.3714309984242Q806.597240627496 324.44961954302164 807.9640645096447 325.27607119269294Q809.3626749937038 326.0707362404537 811.6513103312549 329.7261954601536L811.6513103312549 329.7261954601536Q813.4631466401496 331.5698183709586 813.0181342134034 335.2252775906584Q812.541335184747 338.88073681035814 810.0301936338227 344.37981894086306L810.0301936338227 344.37981894086306Q809.1083821784202 346.1916552497578 807.8687047039133 349.62460825608446Q806.597240627496 353.05756126241124 806.1522282007501 355.82299562861886L806.1522282007501 355.82299562861886Q805.2304167453475 357.6348319375136 803.9589526689301 360.972425138109Q802.7192751944233 364.27823173679405 801.7974637390207 367.26617231637476L801.7974637390207 367.26617231637476Q801.3524513122746 368.4104899851503 800.8756522836181 370.57197891505973Q800.4306398568721 372.76525444687957 799.7313346148426 375.14924959016207Q799.0638159747235 377.565031335355 797.919498305948 379.3768676442496L797.919498305948 379.3768676442496Q795.8533691817697 388.7857018097378 794.1368926786064 390.37503190525945Q792.4204161754429 391.9643620007811 788.5106641404598 387.64138414096215ZM810.7294988758523 294.6973601548565L810.7294988758523 294.6973601548565Q809.5851812070767 293.5530424860809 808.6633697516742 291.3915535561715Q807.7415582962716 289.23006462626205 807.5190520828986 287.2592953078152Q807.2965458695256 285.3203125912788 807.9640645096447 285.3203125912788L807.9640645096447 285.3203125912788Q809.8076874204497 285.0978063779058 812.318828971374 281.442347158206Q814.8299705222981 277.78688793850625 814.3849580955522 275.0214535722986L814.3849580955522 275.0214535722986Q814.3849580955522 274.099642116896 815.0842633375815 273.3049770691352Q815.7517819777007 272.5103120213744 816.6735934331033 272.28780580800134L816.6735934331033 272.28780580800134Q819.4072411974005 270.44418289719624 822.0455291559664 271.71564697361356Q824.6838171145324 272.95532444812045 826.9724524520835 276.64257026973064L826.9724524520835 276.64257026973064Q829.0385815762617 280.9655481295495 828.1167701208591 283.82634230148847Q827.1949586654565 286.6871364734274 823.0944870190107 291.74120617718626L823.0944870190107 291.74120617718626Q819.661534012684 296.3184768522886 816.800739840745 296.7634892790346Q813.939945668806 297.2402883076911 810.7294988758523 294.6973601548565ZM830.4054054584102 386.71957268555957L830.4054054584102 386.71957268555957Q829.4835940030076 384.87594977475453 828.1167701208591 383.8587785136207Q826.7499462387105 382.8098206505764 826.7499462387105 381.91979579708425L826.7499462387105 381.91979579708425Q826.7499462387105 380.9979843416818 826.6227998310688 379.9490264786374Q826.5274400253375 378.93185521750354 825.605628569935 378.0100437621011L825.605628569935 378.0100437621011Q824.4613109011593 376.6432198799524 825.828134783308 371.7162965838353Q827.1949586654565 366.78937328771826 830.4054054584102 359.60560125596044Q833.615852251364 352.3900426222922 837.9706167130932 344.37981894086306L837.9706167130932 344.37981894086306Q839.782453021988 342.536196030058 841.626075932793 339.58004205238774Q843.4379122416877 336.59210147280703 844.3597236970903 335.67029001740445L844.3597236970903 335.67029001740445Q844.3597236970903 334.7484785620019 845.0590289391198 333.9538135142411Q845.7265475792389 333.15914846648025 846.6483590346414 333.15914846648025L846.6483590346414 333.15914846648025L846.6483590346414 331.7923245843317Q846.6483590346414 330.64800691555604 848.8416345664613 327.8825725493484Q851.0031234963707 325.14892478505124 854.2135702893245 321.84311818636615Q857.4240170822782 318.50552498577076 860.856970088605 315.4222246004588Q864.2899230949316 312.3389242151468 866.5785584324829 310.9721003329981L866.5785584324829 310.9721003329981Q871.3783353209582 307.7616535400444 876.5277648304483 307.0623482980149Q881.6771943399384 306.3948296578958 885.3326535596383 309.350983635566L885.3326535596383 309.350983635566Q886.0319588016678 310.05028887759556 887.6212888971894 311.6396189731172Q889.210618992711 313.26073567054937 891.4038945245309 315.1997183870857Q893.5653834544404 317.1387011036221 895.8540187919915 319.20483022780024L895.8540187919915 319.20483022780024L904.341041502077 326.73825488057287L900.2087832537208 338.18143156832866Q897.22084267414 347.33597291853334 898.7148129639305 354.2018789311868Q900.2087832537208 361.06778494384037 903.1967238333015 366.1218546475991L903.1967238333015 366.1218546475991Q904.341041502077 368.6329961985233 907.8693543141351 370.9216315360745Q911.4294537281036 373.21026687362564 914.6399005210573 373.6552793003717L914.6399005210573 373.6552793003717Q916.451736829952 373.90957211565524 918.0728535273842 375.0538897844308Q919.6621836229057 376.19820745320635 919.6621836229057 378.70934900413056L919.6621836229057 378.70934900413056Q919.6621836229057 380.9979843416818 918.7403721675031 382.3648082238303Q917.8185607121005 383.731632105979 915.5299253745494 384.2084311346355L915.5299253745494 384.2084311346355Q907.9965007217769 385.0984559881275 901.4802473301381 380.5211853130253Q894.9322073365889 375.94391463792294 889.4649118079946 365.4225494055696L889.4649118079946 365.4225494055696Q888.543100352592 364.05572552342096 887.0491300628016 360.2731198960795Q885.5551597730113 356.490514268738 885.3326535596383 355.34619659996247L885.3326535596383 355.34619659996247Q884.4108421042357 356.490514268738 881.8997005533115 359.60560125596044Q879.3885590023873 362.6889016412724 878.0217351202386 364.05572552342096L878.0217351202386 364.05572552342096Q861.7469949420971 380.5211853130253 849.9859522352368 386.1474138511718Q838.1931229264663 391.741855787408 830.4054054584102 386.71957268555957ZM838.6381353532123 373.90957211565524L838.6381353532123 373.90957211565524Q838.6381353532123 375.49890221117687 843.5650586493294 373.78242570801353Q848.4919819454466 372.0659492048501 854.2135702893245 367.48867852974774L854.2135702893245 367.48867852974774Q862.0012877573805 360.84527873046727 869.8843650311679 352.83505504903826Q877.7674423049551 344.82483136760914 882.599005795341 337.9589253549557L882.599005795341 337.9589253549557L887.6212888971894 329.7261954601536Q885.3326535596383 324.44961954302164 882.6943656010723 322.5106368264853Q880.0560776425064 320.5716541099489 878.2442413336117 320.5716541099489L878.2442413336117 320.5716541099489Q875.256300754031 320.5716541099489 869.4393526044217 326.0707362404537Q863.5906178529021 331.5698183709586 856.9472180536217 340.7243597211633Q850.3038182543412 349.878901071368 844.3597236970903 360.84527873046727L844.3597236970903 360.84527873046727Q842.0710883595392 365.4225494055696 840.3546118563758 369.65016745965715Q838.6381353532123 373.90957211565524 838.6381353532123 373.90957211565524Z " fill="#e6d40e" transform="matrix(0.9514363297228616,0,0,0.9514363297228616,0,-4.715758364108552)"/></g></svg>